<?xml version="1.0" ?><svg enable-background="new 0 0 512 512" height="50px" id="Layer_1" version="1.1" viewBox="0 0 512 512" width="50px" xml:space="preserve" xmlns="http://www.w3.org/2000/svg" xmlns:cc="http://creativecommons.org/ns#" xmlns:dc="http://purl.org/dc/elements/1.1/" xmlns:inkscape="http://www.inkscape.org/namespaces/inkscape" xmlns:rdf="http://www.w3.org/1999/02/22-rdf-syntax-ns#" xmlns:sodipodi="http://sodipodi.sourceforge.net/DTD/sodipodi-0.dtd" xmlns:svg="http://www.w3.org/2000/svg" xmlns:xlink="http://www.w3.org/1999/xlink"><defs id="defs9"><linearGradient gradientTransform="translate(1635.9966,-2013.2351)" gradientUnits="userSpaceOnUse" id="linearGradient3006" x1="256.00049" x2="256.00049" xlink:href="#SVGID_1_-8" y1="512" y2="0.00048828131"/><linearGradient gradientUnits="userSpaceOnUse" id="SVGID_1_-8" x1="256.00049" x2="256.00049" y1="512" y2="0.00048828131"><stop id="stop4-8" offset="0" style="stop-color:#0c80b1;stop-opacity:1"/><stop id="stop6-2" offset="1" style="stop-color:#11a7df;stop-opacity:1"/></linearGradient><linearGradient gradientTransform="translate(-305.89831,-425.22034)" gradientUnits="userSpaceOnUse" id="linearGradient3388" x1="256.00049" x2="256.00049" xlink:href="#SVGID_1_-8" y1="512" y2="0.00048828131"/><linearGradient gradientUnits="userSpaceOnUse" id="linearGradient3779" x1="518.50848" x2="518.50848" xlink:href="#SVGID_1_-8" y1="518.50848" y2="2.1694915"/><linearGradient gradientTransform="matrix(0,-1,-1,0,512,512)" gradientUnits="userSpaceOnUse" id="linearGradient3781" x1="-1.8544069e-006" x2="512" xlink:href="#SVGID_1_-8-1" y1="256" y2="256"/><linearGradient gradientUnits="userSpaceOnUse" id="SVGID_1_-8-1" x1="256.00049" x2="256.00049" y1="512" y2="0.00048828131"><stop id="stop4-8-7" offset="0" style="stop-color:#0c80b1;stop-opacity:1"/><stop id="stop6-2-4" offset="1" style="stop-color:#11a7df;stop-opacity:1"/></linearGradient><linearGradient gradientTransform="matrix(0,-1,-1,0,512,512)" gradientUnits="userSpaceOnUse" id="linearGradient3007" x1="-1.8544069e-006" x2="512" xlink:href="#SVGID_1_-8-1" y1="256" y2="256"/><linearGradient gradientUnits="userSpaceOnUse" id="linearGradient3014" x1="518.50848" x2="518.50848" xlink:href="#SVGID_1_-8" y1="518.50848" y2="2.1694915"/><linearGradient gradientTransform="matrix(0,-1,-1,0,-451.25424,622.64407)" gradientUnits="userSpaceOnUse" id="linearGradient3020" x1="-1.8544069e-006" x2="512" xlink:href="#SVGID_1_-8-1" y1="256" y2="256"/><linearGradient gradientTransform="matrix(0,-1,-1,0,511.99576,511.98782)" gradientUnits="userSpaceOnUse" id="linearGradient3044" x1="-1.8544069e-006" x2="512" xlink:href="#SVGID_1_-8-1" y1="256" y2="256"/></defs><g id="g3046"><path d="M 73.125,-9.2651453e-7 C 32.73606,-9.2651453e-7 0,32.736059 0,73.124999 L 0,438.84375 C 0,479.23269 32.73606,512 73.125,512 l 365.71875,0 C 479.23269,512.009 512,479.23269 512,438.84375 L 512,73.124999 C 512,32.727529 479.23269,-9.2651453e-7 438.84375,-9.2651453e-7 l -365.71875,0 z" id="path5-0" style="fill:url(#linearGradient3044);fill-opacity:1"/><path d="m 277.2225,230.326 v -0.771 c -0.163,0.245 -0.345,0.508 -0.49,0.771 h 0.49 z m -117.141,193.886 h -76 v -227 h 76 v 227 z m -37.937,-258 h -0.49 c -25.351,0 -41.736,-17.396 -41.736,-39.199 0,-22.284 16.885,-39.225 42.726,-39.225 25.831,0 41.736,16.924 42.235,39.208 -0.001,21.802 -16.405,39.216 -42.735,39.216 z m 309.937,258 h -75 V 303.029 c 0,-30.54 -11.1,-51.372 -38.446,-51.372 -20.859,0 -33.442,14.045 -38.905,27.609 -1.996,4.872 -2.648,11.632 -2.648,18.437 v 126.509 h -75.384 c 0,0 0.998,-206 0,-227 h 75.383 v 32.343 c 10,-15.479 27.965,-37.527 68.061,-37.527 49.693,0 86.939,32.482 86.939,102.272 v 129.912 l 0,0 z" id="path5-9" style="fill:#ffffff"/></g></svg>